<?xml version="1.0" encoding="UTF-8" standalone="no"?>
<svg
   xmlns:dc="http://purl.org/dc/elements/1.1/"
   xmlns:cc="http://creativecommons.org/ns#"
   xmlns:rdf="http://www.w3.org/1999/02/22-rdf-syntax-ns#"
   xmlns:svg="http://www.w3.org/2000/svg"
   xmlns="http://www.w3.org/2000/svg"
   xmlns:sodipodi="http://sodipodi.sourceforge.net/DTD/sodipodi-0.dtd"
   xmlns:inkscape="http://www.inkscape.org/namespaces/inkscape"
   fill="#000000"
   viewBox="0 0 128 128"
   width="512px"
   height="512px"
   version="1.1"
   id="svg3725"
   sodipodi:docname="recent.svg"
   inkscape:version="0.92.4 (5da689c313, 2019-01-14)">
  <metadata
     id="metadata3731">
    <rdf:RDF>
      <cc:Work
         rdf:about="">
        <dc:format>image/svg+xml</dc:format>
        <dc:type
           rdf:resource="http://purl.org/dc/dcmitype/StillImage" />
      </cc:Work>
    </rdf:RDF>
  </metadata>
  <defs
     id="defs3729" />
  <sodipodi:namedview
     pagecolor="#ffffff"
     bordercolor="#666666"
     borderopacity="1"
     objecttolerance="10"
     gridtolerance="10"
     guidetolerance="10"
     inkscape:pageopacity="0"
     inkscape:pageshadow="2"
     inkscape:window-width="1920"
     inkscape:window-height="1001"
     id="namedview3727"
     showgrid="false"
     inkscape:zoom="1.578125"
     inkscape:cx="246.56565"
     inkscape:cy="278.78155"
     inkscape:window-x="-9"
     inkscape:window-y="-9"
     inkscape:window-maximized="1"
     inkscape:current-layer="svg3725" />
  <path
     d="M 64 13.5 C 36.2 13.5 13.5 36.2 13.5 64 C 13.5 91.8 36.2 114.5 64 114.5 C 91.8 114.5 114.5 91.8 114.5 64 C 114.5 36.2 91.8 13.5 64 13.5 z M 64 19.5 C 88.5 19.5 108.5 39.5 108.5 64 C 108.5 88.5 88.5 108.5 64 108.5 C 39.5 108.5 19.5 88.5 19.5 64 C 19.5 39.5 39.5 19.5 64 19.5 z M 64 31 C 62.3 31 61 32.3 61 34 L 61 58.800781 C 59.2 59.800781 58 61.8 58 64 C 58 67.3 60.7 70 64 70 C 66.2 70 68.199219 68.8 69.199219 67 L 84 67 C 85.7 67 87 65.7 87 64 C 87 62.3 85.7 61 84 61 L 69.199219 61 C 68.699219 60.1 67.9 59.300781 67 58.800781 L 67 34 C 67 32.3 65.7 31 64 31 z"
     id="path3723" />
  <path
     style="fill:#ffffff;stroke-width:0.63366336"
     d="M 245.54455,457.50011 C 204.23093,454.92432 166.19223,440.85776 134.01466,416.2568 91.233411,383.54893 63.591164,336.13267 55.957086,282.3604 c -1.603397,-11.29387 -1.590564,-42.05996 0.02207,-52.9109 8.21635,-55.2854 35.74386,-102.01149 79.307974,-134.619931 28.96606,-21.681565 59.94843,-34.2442 96.47265,-39.11744 11.19742,-1.494013 37.27175,-1.495611 48.45634,-0.003 36.43266,4.86213 67.61995,17.505658 96.49675,39.12041 42.92737,32.131821 70.76663,78.903801 78.98409,132.698981 1.63976,10.73464 2.27733,34.36966 1.23333,45.72005 -5.30372,57.66192 -33.75581,108.82847 -79.90059,143.68844 -29.46265,22.2575 -62.32277,35.30458 -99.80198,39.62627 -6.33282,0.73024 -25.77567,1.30512 -31.68317,0.9368 z m 30.73268,-24.35758 c 36.66569,-4.08432 73.88026,-21.25654 100.60751,-46.42415 32.77854,-30.86578 51.94473,-69.25856 56.52557,-113.22927 1.55343,-14.91119 0.46912,-37.15383 -2.54421,-52.18937 C 416.96154,151.92035 362.65689,96.691713 293.70297,81.802783 279.70244,78.779707 272.49308,78.064985 256,78.064985 c -16.49308,0 -23.70244,0.714722 -37.70297,3.737798 -68.97004,14.89241 -123.255318,70.101357 -137.163131,139.496957 -3.957761,19.74798 -4.302667,43.77972 -0.921819,64.22897 8.849624,53.52744 42.53942,100.55045 91.19386,127.28513 19.1532,10.52431 44.20401,18.33078 65.26733,20.33896 3.83366,0.3655 8.11089,0.77778 9.50495,0.91617 4.06648,0.40369 23.53863,-0.19566 30.09901,-0.92644 z"
     id="path3733"
     inkscape:connector-curvature="0"
     transform="scale(0.25)" />
  <path
     style="fill:#ffffff;stroke-width:0.63366336"
     d="m 250.76969,279.17757 c -6.79238,-1.71442 -12.98185,-6.7655 -16.11927,-13.15455 -1.58959,-3.23704 -1.77913,-4.29811 -1.77913,-9.95965 0,-5.52237 0.21457,-6.79426 1.6698,-9.89783 1.88667,-4.02369 5.59527,-8.42361 8.26277,-9.80303 l 1.7902,-0.92575 0.0104,-51.46887 0.0104,-51.46888 1.42823,-2.52174 c 4.10015,-7.23937 15.81357,-7.23937 19.91372,0 l 1.42823,2.52174 0.0104,51.36317 0.0104,51.36317 2.84491,2.00527 c 1.5647,1.10291 3.63203,3.14302 4.59406,4.53358 l 1.74915,2.5283 30.91144,0.024 c 33.96588,0.0264 33.60961,-0.0109 37.17761,3.89556 5.22259,5.71801 3.14735,15.10783 -4.06284,18.38297 -2.36987,1.07648 -4.85296,1.16459 -33.29354,1.18148 l -30.73267,0.0183 -1.52457,2.23852 c -4.71039,6.91624 -16.11853,11.20923 -24.2998,9.14425 z"
     id="path3735"
     inkscape:connector-curvature="0"
     transform="scale(0.25)" />
  <path
     style="fill:#ffffff;stroke-width:0.63366336"
     d="M 239.52475,456.79773 C 220.2305,455.22557 196.01077,449.10984 177.32853,441.09251 119.8024,416.40568 76.908137,366.57718 61.141426,306.12277 56.009646,286.44595 54.814866,274.97789 55.300183,250.05579 55.66548,231.297 56.376799,225.41012 60.170652,209.74775 74.602275,150.1689 113.40663,101.99838 168.87129,74.810155 c 17.05028,-8.357879 34.97839,-14.131131 53.95601,-17.375039 20.30587,-3.470951 46.03953,-3.470951 66.3454,0 41.70887,7.129437 79.22441,26.717243 109.72857,57.292044 30.02518,30.09471 49.49488,68.83012 56.44903,112.30667 1.36348,8.52426 1.95949,40.64607 0.92127,49.65067 -7.67525,66.56806 -45.07009,122.80979 -103.47687,155.62892 -23.60847,13.26575 -53.69599,22.32837 -80.68152,24.30195 -7.81364,0.57145 -26.52808,0.67617 -32.58843,0.18236 z m 41.06364,-23.93296 c 40.78297,-5.86048 79.71076,-26.40938 106.68958,-56.31845 31.12851,-34.50947 46.97065,-74.90871 46.84417,-119.45788 -0.0546,-19.20848 -1.39769,-30.53131 -5.47837,-46.18262 C 414.47611,156.56623 374.10943,110.90513 321.90099,90.162845 306.21257,83.929873 288.04706,79.582534 272.15842,78.258537 c -10.82323,-0.901897 -32.9585,-0.383381 -41.70281,0.976883 -31.77225,4.942489 -61.1006,17.727499 -85.98036,37.48114 -6.82073,5.41541 -21.86188,20.46511 -27.48961,27.50522 -20.965187,26.22682 -34.441443,58.24971 -38.133202,90.61386 -1.31883,11.56165 -0.978636,37.85728 0.623039,48.15842 2.747552,17.67082 8.239314,34.84487 16.514113,51.64356 8.91408,18.0965 19.43815,32.7543 33.90158,47.21774 20.7399,20.7399 43.12979,34.53415 70.98012,43.73036 13.08977,4.32225 24.42861,6.66976 40.87128,8.46167 5.14686,0.56091 32.50977,-0.27213 38.84582,-1.18262 z"
     id="path3737"
     inkscape:connector-curvature="0"
     transform="scale(0.25)" />
  <path
     style="fill:#ffffff;stroke-width:0.63366336"
     d="m 240.47525,456.88751 c -1.04555,-0.14802 -4.6099,-0.57235 -7.92079,-0.94294 -24.12204,-2.70004 -51.40338,-11.47647 -73.18812,-23.5447 C 123.45731,412.50713 94.348919,382.2172 76.156334,345.8123 64.942761,323.37299 57.548836,298.14626 55.682304,275.95863 c -1.10345,-13.1168 -0.384658,-41.39577 1.294911,-50.94477 7.459205,-42.40852 25.222252,-78.21167 53.494765,-107.82394 33.38321,-34.965127 80.44177,-57.795498 127.15178,-61.68744 16.24568,-1.353612 37.15523,-0.577838 51.64357,1.916049 41.42163,7.129936 78.91612,26.63052 109.00835,56.694371 24.06422,24.04155 40.62603,51.75399 50.5619,84.60393 2.57058,8.49885 5.10621,19.52363 6.51272,28.317 1.34719,8.42247 1.95752,40.59801 0.94181,49.65067 -7.43645,66.27818 -45.34734,123.21591 -103.7275,155.78658 -16.29016,9.08839 -35.47816,16.25834 -54.426,20.3373 -13.81582,2.97417 -22.17593,3.84714 -39.28712,4.10245 -9.06139,0.1352 -17.3307,0.1247 -18.37624,-0.0233 z m 11.95762,-23.12637 c -20.10478,-0.95506 -35.60881,-3.68339 -51.96816,-9.14511 -15.92025,-5.31512 -28.56774,-11.51294 -42.68253,-20.91627 -11.02714,-7.34634 -17.37015,-12.55038 -26.98463,-22.13922 -29.0479,-28.97045 -46.628829,-65.22292 -51.334564,-105.85361 -1.56972,-13.55342 -0.976579,-36.02781 1.293311,-49.00421 11.833042,-67.64656 60.518883,-122.21845 126.134793,-141.384274 60.38032,-17.636559 126.41934,-1.248437 171.84767,42.645394 30.4604,29.43149 48.89072,66.50246 53.76087,108.13525 1.20295,10.28347 1.18647,29.78595 -0.034,40.21933 -3.85444,32.95069 -16.85081,64.09901 -37.68491,90.3192 -6.30461,7.9345 -19.76071,21.508 -27.25597,27.49377 -26.17942,20.90708 -59.88771,35.03368 -91.56436,38.37315 -3.48514,0.36742 -7.47722,0.78626 -8.87128,0.93077 -1.39406,0.14451 0.74455,0.15645 4.75247,0.0265 21.91851,-0.71049 52.13012,-10.45435 75.40594,-24.31996 40.6537,-24.21776 70.8013,-64.81912 81.99566,-110.4279 3.85278,-15.69723 4.47039,-21.49621 4.47491,-42.01695 0.003,-15.06876 -0.23192,-20.58636 -1.13467,-26.61386 C 421.1976,154.06169 362.40194,93.641246 286.73682,80.206076 c -18.05948,-3.206658 -42.78808,-3.330074 -60.20214,-0.300458 -29.83031,5.189739 -57.87797,17.765224 -81.61138,36.591392 -7.66995,6.08407 -21.84869,20.16494 -27.91743,27.72472 -19.398687,24.16479 -32.663088,54.20768 -37.48948,84.91089 -1.41843,9.02338 -1.973288,34.20999 -0.986873,44.79697 6.087252,65.33323 50.334383,123.66191 112.328553,148.07688 20.40835,8.03736 42.2457,12.3148 62.60731,12.26336 l 9.18812,-0.0232 -10.2206,-0.48552 z m 7.92671,-153.92098 c 5.23072,-0.99198 10.00116,-3.69796 13.67372,-7.75626 l 3.31581,-3.6641 h 29.9648 c 21.82654,0 30.66903,-0.21099 32.55776,-0.77687 1.42613,-0.42728 3.6317,-1.8156 4.90126,-3.08517 5.80957,-5.80957 3.96165,-16.26296 -3.47165,-19.63856 -2.43015,-1.10358 -4.68927,-1.18539 -33.09209,-1.19835 l -30.48388,-0.0139 -4.84285,-4.76493 -4.84286,-4.76494 v -50.84891 c 0,-57.08608 0.3324,-53.06099 -4.71958,-57.1499 -2.18417,-1.76779 -2.75343,-1.91686 -7.32002,-1.91686 -4.56659,0 -5.13585,0.14907 -7.32002,1.91686 -5.05245,4.08929 -4.71958,0.0518 -4.71958,57.24633 v 50.94535 l -4.01463,3.67867 c -2.87406,2.63356 -4.5393,4.81501 -5.86139,7.67841 -1.65014,3.57388 -1.84676,4.67437 -1.84676,10.33636 0,5.53737 0.21264,6.79023 1.68581,9.93276 3.16342,6.74817 9.37851,11.80688 16.69043,13.58502 4.031,0.98026 5.70763,1.02483 9.74572,0.25901 z"
     id="path3739"
     inkscape:connector-curvature="0"
     transform="scale(0.25)" />
</svg>
